<?xml version="1.0" encoding="UTF-8" standalone="no"?>
<svg
   xmlns:dc="http://purl.org/dc/elements/1.1/"
   xmlns:cc="http://creativecommons.org/ns#"
   xmlns:rdf="http://www.w3.org/1999/02/22-rdf-syntax-ns#"
   xmlns:svg="http://www.w3.org/2000/svg"
   xmlns="http://www.w3.org/2000/svg"
   xmlns:sodipodi="http://sodipodi.sourceforge.net/DTD/sodipodi-0.dtd"
   xmlns:inkscape="http://www.inkscape.org/namespaces/inkscape"
   version="1.1"
   x="0px"
   y="0px"
   viewBox="0 0 308.3392 212.41154"
   id="svg3590"
   inkscape:version="0.91 r13725"
   sodipodi:docname="card.svg"
   width="308.3392"
   height="212.41154">
  <metadata
     id="metadata3604">
    <rdf:RDF>
      <cc:Work
         rdf:about="">
        <dc:format>image/svg+xml</dc:format>
        <dc:type
           rdf:resource="http://purl.org/dc/dcmitype/StillImage" />
        <dc:title></dc:title>
      </cc:Work>
    </rdf:RDF>
  </metadata>
  <defs
     id="defs3602" />
  <sodipodi:namedview
     pagecolor="#ffffff"
     bordercolor="#666666"
     borderopacity="1"
     objecttolerance="10"
     gridtolerance="10"
     guidetolerance="10"
     inkscape:pageopacity="0"
     inkscape:pageshadow="2"
     inkscape:window-width="1366"
     inkscape:window-height="704"
     id="namedview3600"
     showgrid="false"
     fit-margin-top="0"
     fit-margin-left="0"
     fit-margin-right="0"
     fit-margin-bottom="0"
     inkscape:zoom="1.028"
     inkscape:cx="-26.47908"
     inkscape:cy="21.681472"
     inkscape:window-x="0"
     inkscape:window-y="27"
     inkscape:window-maximized="1"
     inkscape:current-layer="g3592" />
  <g
     transform="translate(-4.9999998,-820.95055)"
     id="g3592">
    <g
       id="g4495"
       transform="matrix(3.4259911,0,0,3.4259911,-12.129956,-2506.9276)">
      <rect
         ry="5"
         rx="4.5821729"
         y="971.57422"
         x="13.861869"
         height="53.015564"
         width="80.009727"
         id="rect3674"
         style="fill:#2daae1;fill-opacity:1" />
      <circle
         r="13.740273"
         cy="1018.1452"
         cx="19.82004"
         id="path4476"
         style="fill:#f9f9f9;fill-opacity:1" />
      <rect
         y="982.2746"
         x="14.591441"
         height="9.484436"
         width="79.280159"
         id="rect3672"
         style="fill:#220055;fill-opacity:1" />
      <circle
         r="6.322957"
         cy="1009.2689"
         cx="80.009727"
         id="path4478-3"
         style="fill:#ffd42a;fill-opacity:1" />
      <circle
         r="6.322957"
         cy="1009.269"
         cx="70.03891"
         id="path4478"
         style="fill:#ff7f2a;fill-opacity:1" />
      <path
         sodipodi:nodetypes="sscsscssssssssccsscccccccsscssccssscssscssssssssscscssssss"
         inkscape:connector-curvature="0"
         id="path3594"
         overflow="visible"
         display="inline"
         visibility="visible"
         d="m 19,971.36217 c -3.30666,0 -6,2.6933 -6,6 l 0,27.75003 c -4.7561899,2.5181 -7.9999999,7.503 -7.9999999,13.25 0,8.2724 6.7275999,15 14.9999999,15 5.74701,0 10.73193,-3.2438 13.25,-8 l 55.75,0 c 3.30666,0 6,-2.6933 6,-6 l 0,-42.00003 c 0,-3.3067 -2.69334,-6 -6,-6 z m 0,2 70,0 c 2.23326,0 4,1.7667 4,4 l 0,4 -78,0 0,-4 c 0,-2.2333 1.76674,-4 4,-4 z m -4,10 78,0 0,8 -78,0 z m 0,10 78,0 0,26.00003 c 0,2.2333 -1.76674,4 -4,4 l -54.875,0 c 0.55317,-1.5628 0.875,-3.2499 0.875,-5 0,-8.2724 -6.7276,-15 -15,-15 -1.75015,0 -3.43722,0.3218 -5,0.875 z m 55,9.00003 c -3.85415,0 -7,3.1459 -7,7 0,3.8541 3.14585,7 7,7 1.95159,0 3.7281,-0.8283 5,-2.125 1.2736,1.2979 3.05037,2.125 5,2.125 3.85415,0 7,-3.1459 7,-7 0,-3.8541 -3.14585,-7 -7,-7 -1.94961,0 -3.72639,0.8035 -5,2.0938 -1.27067,-1.2868 -3.05694,-2.0938 -5,-2.0938 z m 0,2 c 2.77327,0 5,2.2267 5,5 0,2.7733 -2.22673,5 -5,5 -2.77327,0 -5,-2.2267 -5,-5 0,-2.7733 2.22673,-5 5,-5 z m 10,0 c 2.77327,0 5,2.2267 5,5 0,2.7733 -2.22673,5 -5,5 -1.52683,0 -2.86681,-0.7055 -3.78125,-1.7812 0.50044,-0.9632 0.78125,-2.0626 0.78125,-3.2188 0,-1.1659 -0.27299,-2.2812 -0.78125,-3.25 0.91443,-1.0701 2.25439,-1.75 3.78125,-1.75 z m -60,1 c 7.1916,0 13,5.8085 13,13 0,7.1916 -5.8084,13 -13,13 -7.1916,0 -12.9999999,-5.8084 -12.9999999,-13 0,-7.1915 5.8083999,-13 12.9999999,-13 z"
         style="color:#000000;text-indent:0;text-transform:none;direction:ltr;block-progression:tb;baseline-shift:baseline;display:inline;overflow:visible;visibility:visible;fill:#000000;fill-opacity:1;stroke:none;marker:none;enable-background:accumulate" />
      <g
         transform="matrix(0.266386,0,0,0.266386,46.108999,822.54997)"
         id="layer1">
        <g
           transform="matrix(5.9268127,0,0,5.9268127,430.78908,157.1658)"
           id="g3369">
          <g
             id="g3477">
            <g
               style="fill:#999999"
               id="g3471"
               transform="translate(0.2364676,-8.6464309)">
              <path
                 inkscape:connector-curvature="0"
                 style="fill:#999999;fill-opacity:1"
                 id="path3357-6"
                 d="m -89.259742,100.47345 c -0.520514,0.11244 -1.017834,0.36284 -1.433361,0.75315 -0.0034,0.003 -0.0069,0.007 -0.01028,0.01 l -4.538346,4.54912 c -0.08548,0.0856 -0.128096,0.19778 -0.128096,0.30983 0,0.11205 0.04274,0.22411 0.127969,0.30971 l 4.538471,4.55226 c 0.0034,0.003 0.0069,0.007 0.01028,0.01 0.41543,0.3905 0.912762,0.64103 1.43336,0.75349 l 0,-11.24736 z" />
              <path
                 inkscape:connector-curvature="0"
                 id="path3357-3"
                 d="m -88.759894,100.31513 c -0.02842,9e-5 -0.05683,3.8e-4 -0.08526,7.6e-4 l 0,1.31418 c 0.875639,0.0472 1.727985,0.29104 2.375764,0.72832 0.644688,0.43605 0.999583,1.00515 0.999583,1.60265 0,0.64407 -0.423883,1.26621 -1.162975,1.707 l -0.573884,0.34201 0.573591,0.34167 c 0.739396,0.44098 1.163268,1.06311 1.163268,1.70708 0,0.5976 -0.354922,1.1665 -0.999457,1.60225 -0.648126,0.43723 -1.500433,0.68109 -2.37589,0.7283 l 0,1.42692 c 1.324612,0.0184 2.656362,-0.3056 3.6338,-0.96498 0.844686,-0.57107 1.309819,-1.31662 1.309819,-2.09979 0,-0.84395 -0.555532,-1.6593 -1.524533,-2.23721 l -0.751688,-0.44774 0.752107,-0.44825 c 0.968605,-0.57766 1.524114,-1.393 1.524114,-2.23708 0,-0.78304 -0.465144,-1.52884 -1.310028,-2.10029 -0.955933,-0.6453 -2.251712,-0.96949 -3.548334,-0.96581 z"
                 style="fill:#999999" />
            </g>
          </g>
        </g>
      </g>
    </g>
  </g>
</svg>
