<?xml version="1.0" encoding="UTF-8" standalone="no"?>
<svg
   xmlns:dc="http://purl.org/dc/elements/1.1/"
   xmlns:cc="http://creativecommons.org/ns#"
   xmlns:rdf="http://www.w3.org/1999/02/22-rdf-syntax-ns#"
   xmlns:svg="http://www.w3.org/2000/svg"
   xmlns="http://www.w3.org/2000/svg"
   xmlns:sodipodi="http://sodipodi.sourceforge.net/DTD/sodipodi-0.dtd"
   xmlns:inkscape="http://www.inkscape.org/namespaces/inkscape"
   version="1.1"
   x="0px"
   y="0px"
   viewBox="0 0 242.60228 247.8009"
   xml:space="preserve"
   id="svg8112"
   inkscape:version="0.91 r13725"
   sodipodi:docname="chart.svg"
   width="242.60228"
   height="247.8009"><metadata
     id="metadata8178"><rdf:RDF><cc:Work
         rdf:about=""><dc:format>image/svg+xml</dc:format><dc:type
           rdf:resource="http://purl.org/dc/dcmitype/StillImage" /><dc:title></dc:title></cc:Work></rdf:RDF></metadata><defs
     id="defs8176" /><sodipodi:namedview
     pagecolor="#ffffff"
     bordercolor="#666666"
     borderopacity="1"
     objecttolerance="10"
     gridtolerance="10"
     guidetolerance="10"
     inkscape:pageopacity="0"
     inkscape:pageshadow="2"
     inkscape:window-width="1366"
     inkscape:window-height="704"
     id="namedview8174"
     showgrid="false"
     fit-margin-top="0"
     fit-margin-left="0"
     fit-margin-right="0"
     fit-margin-bottom="0"
     inkscape:zoom="0.9845625"
     inkscape:cx="193.44936"
     inkscape:cy="122.44251"
     inkscape:window-x="0"
     inkscape:window-y="27"
     inkscape:window-maximized="1"
     inkscape:current-layer="g8114" /><g
     id="g8114"
     transform="matrix(2.3199099,0,0,2.3199099,-18.559279,32.281259)"><rect
       style="opacity:0.95999995;fill:#000000;fill-opacity:1;stroke:none;stroke-width:10;stroke-miterlimit:4;stroke-dasharray:none;stroke-opacity:1"
       id="rect8720"
       width="90.47699"
       height="90.204468"
       x="13.177902"
       y="-4.1174879" /><path
       d="m 19.204358,-12.047483 c 0,-0.373478 0.248985,-0.622464 0.622464,-0.622464 l 11.826822,0 0,-1.244929 -11.826822,0 c -0.995943,0 -1.867393,0.87145 -1.867393,1.867393 l 0,2.8633359 1.244929,0 0,-2.8633359 z"
       id="path8116"
       inkscape:connector-curvature="0" /><rect
       x="39.621189"
       y="-13.914876"
       width="1.6184071"
       height="1.2449286"
       id="rect8118" /><rect
       x="42.235538"
       y="-13.914876"
       width="5.9756575"
       height="1.2449286"
       id="rect8120" /><rect
       x="50.825546"
       y="-13.914876"
       width="2.1163788"
       height="1.2449286"
       id="rect8122" /><rect
       x="53.813374"
       y="-13.914876"
       width="45.190907"
       height="1.2449286"
       id="rect8124" /><path
       d="m 110.70661,-13.914876 -9.95943,0 0,1.244929 9.95943,0 c 0.37348,0 0.62247,0.248986 0.62247,0.622464 l 0,43.696995 1.24492,0 0,-43.696995 c 0,-0.995943 -0.87145,-1.867393 -1.86739,-1.867393 z"
       id="path8126"
       inkscape:connector-curvature="0" /><rect
       x="111.32908"
       y="38.870098"
       width="1.2449286"
       height="2.4898572"
       id="rect8128" /><rect
       x="111.32908"
       y="43.476334"
       width="1.2449286"
       height="3.3613074"
       id="rect8130" /><rect
       x="111.32908"
       y="48.082573"
       width="1.2449286"
       height="14.814651"
       id="rect8132" /><path
       d="m 111.32908,78.832306 c 0,0.373479 -0.24899,0.622465 -0.62247,0.622465 l -2.36536,0 0,1.244928 2.36536,0 c 0.99594,0 1.86739,-0.87145 1.86739,-1.867393 l 0,-14.690157 -1.24492,0 0,14.690157 z"
       id="path8134"
       inkscape:connector-curvature="0" /><rect
       x="8"
       y="61.776787"
       width="1.2449286"
       height="3.7347858"
       id="rect8136" /><rect
       x="8"
       y="56.299099"
       width="1.2449286"
       height="1.8673929"
       id="rect8138" /><rect
       x="54.560333"
       y="91.655075"
       width="2.4898572"
       height="1.2449286"
       id="rect8140" /><rect
       x="50.576561"
       y="91.655075"
       width="1.6184071"
       height="1.2449286"
       id="rect8142" /><path
       d="m 9.2449286,91.032607 0,-16.93103 -1.2449286,0 0,16.93103 C 8,92.02855 8.87145,92.9 9.8673929,92.9 l 36.6009011,0 0,-1.244929 -36.6009011,0 c -0.3734786,0 -0.6224643,-0.248986 -0.6224643,-0.622464 z"
       id="path8144"
       inkscape:connector-curvature="0" /><path
       d="m 103.23704,-5.5738541 -88.389933,0 c -1.369421,0 -2.489857,1.1204358 -2.489857,2.4898573 l 0,88.3899318 c 0,1.369422 1.120436,2.489857 2.489857,2.489857 l 88.389933,0 c 1.36942,0 2.48986,-1.120435 2.48986,-2.489857 l 0,-88.3899318 c 0,-1.3694215 -1.12044,-2.4898573 -2.48986,-2.4898573 z m 0,45.4398941 -42.950038,0 0,-42.9500368 42.950038,0 0,42.9500368 z m -45.439895,-42.9500368 0,42.9500368 -42.950038,0 0,-42.9500368 42.950038,0 z m -42.950038,45.4398948 42.950038,0 0,42.950037 -42.950038,0 0,-42.950037 z m 45.439895,42.950037 0,-42.950037 42.950038,0 0,42.950037 -42.950038,0 z"
       id="path8146"
       inkscape:connector-curvature="0"
       style="fill:#4d4d4d" /><polygon
       points="17.2,44.1 22.4,39.2 27.9,46.2 40.4,28.7 44.2,33.3 45.8,32 40.3,25.4 27.8,42.8 22.6,36.2 15.8,42.7 "
       id="polygon8148"
       style="fill:#0000ff"
       transform="matrix(1.2449286,0,0,1.2449286,-1.9594289,-22.753869)" /><rect
       x="67.507584"
       y="3.6386187"
       width="2.4898572"
       height="29.006836"
       id="rect8150"
       style="fill:#800080" /><rect
       x="75.973099"
       y="14.220511"
       width="2.4898572"
       height="18.424944"
       id="rect8152"
       style="fill:#008080" /><rect
       x="84.314125"
       y="11.108191"
       width="2.4898572"
       height="21.537264"
       id="rect8154"
       style="fill:#55d400" /><rect
       x="92.77964"
       y="6.37746"
       width="2.4898572"
       height="26.267994"
       id="rect8156"
       style="fill:#00aa44" /><path
       d="m 21.694215,80.824192 6.349136,0 0,-32.368144 -6.349136,0 0,32.368144 z m 2.489857,-29.753794 1.369422,0 0,27.38843 -1.369422,0 0,-27.38843 z"
       id="path8158"
       inkscape:connector-curvature="0"
       style="fill:#0000ff;fill-opacity:1" /><path
       d="m 29.288279,80.824192 6.349136,0 0,-35.853944 -6.349136,0 0,35.853944 z m 2.489858,-33.364087 1.369421,0 0,30.87423 -1.369421,0 0,-30.87423 z"
       id="path8160"
       inkscape:connector-curvature="0"
       style="fill:#00aa44;fill-opacity:1" /><path
       d="m 37.006837,80.824192 6.349136,0 0,-18.673929 -6.349136,0 0,18.673929 z m 2.489857,-16.184072 1.369422,0 0,13.694215 -1.369422,0 0,-13.694215 z"
       id="path8162"
       inkscape:connector-curvature="0"
       style="fill:#008080;fill-opacity:1" /><path
       d="m 44.600901,55.801127 0,25.147558 6.349136,0 0,-25.147558 -6.349136,0 z m 3.859279,22.533208 -1.369421,0 0,-20.043351 1.369421,0 0,20.043351 z"
       id="path8164"
       inkscape:connector-curvature="0"
       style="fill:#800080;fill-opacity:1" /><path
       d="m 95.642975,56.050113 -13.569722,4.855221 0,-14.441172 -1.244929,0 c -8.963486,0 -16.184072,7.220586 -16.184072,16.184072 0,8.963486 7.220586,16.184072 16.184072,16.184072 8.963486,0 16.184072,-7.220586 16.184072,-16.184072 0,-1.867393 -0.373478,-3.734786 -0.995943,-5.477686 L 95.642975,56.050113 Z M 80.828324,76.342449 c -7.594064,0 -13.694215,-6.10015 -13.694215,-13.694215 0,-7.096093 5.477686,-12.947257 12.449287,-13.569722 l 0,15.312622 14.441172,-5.104207 c 0.248985,1.120436 0.373478,2.240871 0.373478,3.361307 0.124493,7.594065 -5.975657,13.694215 -13.569722,13.694215 z"
       id="path8166"
       inkscape:connector-curvature="0"
       style="fill:#008080;fill-opacity:1" /><path
       d="M 95.89196,54.18272 C 94.024568,49.078512 89.293839,45.717205 83.816153,45.717205 l -1.244929,0 0,14.565665 13.694215,-4.855222 -0.373479,-1.244928 z m -10.830879,2.61435 0,-8.465515 c 3.361308,0.373479 6.349136,2.489857 7.967544,5.602179 l -7.967544,2.863336 z"
       id="path8168"
       inkscape:connector-curvature="0"
       style="fill:#55d400;fill-opacity:1" /></g></svg>