<?xml version="1.0" encoding="UTF-8" standalone="no"?>
<svg
   xmlns:dc="http://purl.org/dc/elements/1.1/"
   xmlns:cc="http://creativecommons.org/ns#"
   xmlns:rdf="http://www.w3.org/1999/02/22-rdf-syntax-ns#"
   xmlns:svg="http://www.w3.org/2000/svg"
   xmlns="http://www.w3.org/2000/svg"
   version="1.1"
   id="svg2"
   viewBox="0 0 2199.449 886.7792"
   height="250.2688mm"
   width="620.7334mm">
  <defs
     id="defs4" />
  <metadata
     id="metadata7">
    <rdf:RDF>
      <cc:Work
         rdf:about="">
        <dc:format>image/svg+xml</dc:format>
        <dc:type
           rdf:resource="http://purl.org/dc/dcmitype/StillImage" />
        <dc:title></dc:title>
      </cc:Work>
    </rdf:RDF>
  </metadata>
  <g
     transform="translate(133.04849,125.62069)"
     id="layer1">
    <g
       transform="matrix(5.9268127,0,0,5.9268127,430.78908,157.1658)"
       id="g3369">
      <g
         id="g3477">
        <g
           id="g3471"
           transform="translate(0.2364676,-8.6464309)">
          <path
             style="fill:#004d9d;fill-opacity:1"
             id="path3357-6"
             d="m -15.217023,-36.989404 c -6.828167,1.474996 -13.352075,4.759781 -18.803007,9.879888 -0.04431,0.04275 -0.09041,0.08552 -0.134809,0.129922 l -59.534605,59.67594 c -1.12134,1.122979 -1.680378,2.59457 -1.680378,4.064478 0,1.469905 0.560671,2.939831 1.678719,4.06281 l 59.53623,59.717086 c 0.04431,0.0443 0.09042,0.0887 0.13481,0.12987 5.449673,5.12265 11.973737,8.40907 18.803007,9.88436 l 0,-147.54433 z" />
          <path
             id="path3357-3"
             d="m -8.6599535,-39.06629 c -0.372873,0.0011 -0.745574,0.0049 -1.118415,0.01016 l 0,17.239538 c 11.4867454,0.618967 22.6679315,3.817911 31.1655755,9.554232 8.457099,5.7201353 13.112659,13.18568105 13.112659,21.0237754 0,8.4490166 -5.560549,16.6103556 -15.256059,22.3926016 0,0 -6.784111,4.65124 -7.787932,5.655061 C 24.44815,31.866129 24.639188,31.984727 34.819476,31.669965 49.606761,31.212759 55.072652,12.227975 55.072652,1.1552765 55.072652,-9.116793 48.970834,-18.900252 37.887534,-26.396667 25.347493,-34.861799 8.3492957,-39.11452 -8.6599535,-39.066243 Z"
             style="fill:#004d9d;fill-opacity:1" />
          <g
             id="text3500"
             style="font-style:normal;font-variant:normal;font-weight:bold;font-stretch:normal;font-size:111.41342163px;line-height:125%;font-family:'URW Bookman L';-inkscape-font-specification:'URW Bookman L Bold';letter-spacing:0px;word-spacing:0px;fill:#004d9d;fill-opacity:1;stroke:none;stroke-width:1px;stroke-linecap:butt;stroke-linejoin:miter;stroke-opacity:1">
            <path
               id="path4149"
               style="font-style:normal;font-variant:normal;font-weight:normal;font-stretch:normal;font-family:Sriracha;-inkscape-font-specification:Sriracha;fill:#004d9d;fill-opacity:1"
               d="m 16.773797,109.87104 q -13.2581975,0 -19.8315894,-8.57883 -6.5733918,-8.578838 -6.5733918,-23.28541 0,-12.144063 5.2364308,-22.505511 5.2364308,-10.361448 14.5951584,-16.489186 9.358727,-6.127739 21.057137,-6.127739 11.364169,0 18.160387,7.79894 6.907632,7.687526 6.907632,23.062578 0,10.918515 -5.125017,21.725617 -5.013604,10.695689 -14.038091,17.603321 -9.024487,6.79622 -20.388656,6.79622 z m 1.559788,-10.027209 q 5.459257,0 10.695688,-6.127738 5.236431,-6.127739 8.46742,-15.709293 3.342403,-9.581554 3.342403,-19.497349 0,-7.576112 -2.562509,-10.918515 -2.451095,-3.453816 -8.80166,-3.453816 -7.019046,0 -12.478303,6.127738 -5.459258,6.127738 -8.4674205,15.263639 -3.0081624,9.1359 -3.0081624,17.714734 0,5.013604 1.7826148,8.80166 1.8940281,3.788057 4.7907771,5.793498 3.008162,2.005442 6.239152,2.005442 z" />
            <path
               id="path4151"
               style="font-style:normal;font-variant:normal;font-weight:normal;font-stretch:normal;font-family:Sriracha;-inkscape-font-specification:Sriracha;fill:#004d9d;fill-opacity:1"
               d="m 131.13271,36.783834 q 1.89403,3.788056 1.89403,5.793498 0,1.114134 -0.44565,1.559788 -0.66848,0.779894 -3.67664,2.228268 -3.00817,1.448375 -4.01089,1.894029 -3.23099,1.448374 -9.69297,6.573391 -6.35056,5.013604 -12.03264,10.472862 -5.570676,5.347844 -6.68481,7.464699 1.002721,3.453816 5.34784,9.470141 4.34513,5.904911 8.80166,10.695689 4.56795,4.790777 5.90492,4.790777 l 1.11413,0.111413 q 1.33696,0.222827 3.11958,2.451091 1.78261,2.22827 1.78261,4.1223 0,1.55979 -1.89403,1.89403 -1.22555,0.22283 -3.56523,1.11413 -2.11685,0.7799 -4.12229,0.7799 -2.33969,0 -3.56523,-0.55707 -3.45382,-1.44837 -9.1359,-7.01905 -5.570675,-5.68208 -10.361452,-12.701125 -4.790777,-7.019046 -6.239151,-12.36689 l -7.019046,27.964765 q -0.779894,3.23099 -2.451095,4.34513 -1.559788,1.11413 -6.016325,1.11413 -3.453816,0 -5.125017,-1.22555 -1.559788,-1.11413 -1.559788,-3.89947 0,-1.22554 0.33424,-2.33968 L 75.31459,49.596378 74.98035,37.786555 q 0.445653,-1.894028 2.785335,-3.008163 2.451096,-1.114134 4.456537,-1.114134 3.008163,0 5.904911,2.451096 3.008163,2.339681 3.119576,5.793497 0,2.451096 -5.570671,25.402261 3.89947,-5.347845 11.586996,-12.923957 7.798936,-7.576113 15.597876,-13.481024 7.79894,-5.904912 12.25548,-6.684806 1.11413,0 3.23099,0.557067 2.11685,0.445654 2.78533,2.005442 z" />
            <path
               id="path4153"
               style="font-style:normal;font-variant:normal;font-weight:normal;font-stretch:normal;font-family:Sriracha;-inkscape-font-specification:Sriracha;fill:#004d9d;fill-opacity:1"
               d="m 195.57667,57.729557 q 0,14.372332 -4.23371,26.293568 -4.23371,11.809823 -12.47831,18.828865 -8.24459,7.01905 -19.72017,7.01905 -8.91308,0 -15.48647,-4.01088 -6.46198,-4.01089 -9.91579,-11.25276 -3.45382,-7.241873 -3.45382,-16.6006 0,-12.144063 5.23643,-22.505511 5.23643,-10.361448 14.59516,-16.489186 9.35873,-6.127739 21.05714,-6.127739 6.57339,0 12.4783,1.114135 6.01633,1.114134 6.01633,3.899469 0,1.114135 -0.89131,3.23099 -0.7799,2.005441 -1.78262,2.673922 2.56251,0.222826 4.45654,2.785335 2.00544,2.451095 3.00816,5.682085 1.11414,3.230989 1.11414,5.459257 z m -14.81799,0.779894 q 0,-2.562508 -1.11413,-4.122296 -1.00272,-1.671202 -2.78534,-3.342403 -0.22282,-0.222827 -0.89131,-0.891307 -0.66848,-0.668481 -0.66848,-1.225548 0,-0.445654 0.22283,-1.225548 0.33424,-0.779894 0.33424,-1.114134 0,-0.557067 -2.11685,-1.114134 -2.00545,-0.668481 -4.45654,-0.668481 -7.01905,0 -12.4783,6.016325 -5.45926,5.904912 -8.46742,14.929399 -2.89675,8.913073 -2.89675,17.491907 0,5.013604 1.78261,8.80166 1.89403,3.788057 4.79078,5.793498 3.00816,2.005442 6.23915,2.005442 5.45926,0 10.69569,-6.127738 5.23643,-6.127739 8.46742,-15.709293 3.3424,-9.581554 3.3424,-19.497349 z" />
            <path
               id="path4155"
               style="font-style:normal;font-variant:normal;font-weight:normal;font-stretch:normal;font-family:Sriracha;-inkscape-font-specification:Sriracha;fill:#004d9d;fill-opacity:1"
               d="m 256.45716,23.859877 q 0.33424,0.445654 0.33424,1.336961 0,1.894028 -1.00272,2.673922 -1.00272,0.779894 -3.11958,0.779894 -2.89675,0 -6.46198,-1.782614 -3.56523,-1.894029 -10.36145,-6.684806 -4.79077,-3.342402 -6.35056,-4.790777 -1.55979,-1.448374 -1.55979,-2.896749 0,-1.782615 3.00816,-3.8994696 3.00817,-2.116855 5.34785,-2.116855 1.22555,0 5.45926,3.3424026 4.34512,3.230989 8.69024,7.464699 4.45654,4.23371 6.01633,6.573392 z m -43.22841,17.826148 q 1.22555,-4.902191 2.56251,-6.461979 1.44837,-1.671201 5.12502,-1.671201 3.00816,0 5.12501,0.66848 2.22827,0.668481 2.33969,2.005442 0.55706,0.33424 0.55706,1.782615 0,2.339682 -1.22555,7.130459 -1.22554,4.790777 -3.56522,12.478303 -2.67393,9.247314 -4.34513,15.709292 -1.6712,6.461979 -2.11685,11.029929 l -0.11142,1.559788 q 0,4.456537 2.22827,7.353286 2.22827,2.785335 5.45926,4.122296 3.23099,1.225548 6.35056,1.225548 7.13046,0 11.25276,-3.230989 4.1223,-3.342403 6.23915,-9.024487 2.22827,-5.793498 4.1223,-15.709293 1.00272,-5.013604 3.11957,-14.483745 2.11686,-9.47014 2.78534,-11.475582 1.00272,-2.896749 1.22555,-4.456537 0.66848,-2.562509 1.33696,-3.89947 0.77989,-1.336961 2.33968,-2.339681 0.44565,-0.111414 1.22555,-0.222827 0.77989,-0.222827 1.22555,-0.222827 3.78805,0 6.23915,0.66848 2.56251,0.668481 3.00816,1.671202 -1.6712,6.573392 -4.67936,19.608762 -2.89675,12.923957 -4.23371,20.500069 -6.12774,33.869682 -36.76643,33.869682 -7.79894,0 -13.92668,-3.11958 -6.12774,-3.11957 -9.69297,-8.578831 -3.45381,-5.570671 -3.45381,-12.589716 0,-3.56523 1.00272,-7.353286 l 9.24731,-36.543602 z" />
          </g>
        </g>
      </g>
    </g>
  </g>
</svg>
