<?xml version="1.0" encoding="UTF-8" standalone="no"?>
<svg
   xmlns:dc="http://purl.org/dc/elements/1.1/"
   xmlns:cc="http://creativecommons.org/ns#"
   xmlns:rdf="http://www.w3.org/1999/02/22-rdf-syntax-ns#"
   xmlns:svg="http://www.w3.org/2000/svg"
   xmlns="http://www.w3.org/2000/svg"
   version="1.1"
   id="svg2"
   viewBox="0 0 67.970404 68.16974"
   height="19.239016mm"
   width="19.182758mm">
  <defs
     id="defs4" />
  <metadata
     id="metadata7">
    <rdf:RDF>
      <cc:Work
         rdf:about="">
        <dc:format>image/svg+xml</dc:format>
        <dc:type
           rdf:resource="http://purl.org/dc/dcmitype/StillImage" />
        <dc:title></dc:title>
      </cc:Work>
    </rdf:RDF>
  </metadata>
  <g
     transform="translate(133.04851,-700.46877)"
     id="layer1">
    <g
       transform="matrix(5.9268127,0,0,5.9268127,430.78908,157.1658)"
       id="g3369">
      <g
         id="g3477">
        <g
           style="fill:#999999"
           id="g3471"
           transform="translate(0.2364676,-8.6464309)">
          <path
             style="fill:#999999;fill-opacity:1"
             id="path3357-6"
             d="m -89.259742,100.47345 c -0.520514,0.11244 -1.017834,0.36284 -1.433361,0.75315 -0.0034,0.003 -0.0069,0.007 -0.01028,0.01 l -4.538346,4.54912 c -0.08548,0.0856 -0.128096,0.19778 -0.128096,0.30983 0,0.11205 0.04274,0.22411 0.127969,0.30971 l 4.538471,4.55226 c 0.0034,0.003 0.0069,0.007 0.01028,0.01 0.41543,0.3905 0.912762,0.64103 1.43336,0.75349 l 0,-11.24736 z" />
          <path
             id="path3357-3"
             d="m -88.759894,100.31513 c -0.02842,9e-5 -0.05683,3.8e-4 -0.08526,7.6e-4 l 0,1.31418 c 0.875639,0.0472 1.727985,0.29104 2.375764,0.72832 0.644688,0.43605 0.999583,1.00515 0.999583,1.60265 0,0.64407 -0.423883,1.26621 -1.162975,1.707 l -0.573884,0.34201 0.573591,0.34167 c 0.739396,0.44098 1.163268,1.06311 1.163268,1.70708 0,0.5976 -0.354922,1.1665 -0.999457,1.60225 -0.648126,0.43723 -1.500433,0.68109 -2.37589,0.7283 l 0,1.42692 c 1.324612,0.0184 2.656362,-0.3056 3.6338,-0.96498 0.844686,-0.57107 1.309819,-1.31662 1.309819,-2.09979 0,-0.84395 -0.555532,-1.6593 -1.524533,-2.23721 l -0.751688,-0.44774 0.752107,-0.44825 c 0.968605,-0.57766 1.524114,-1.393 1.524114,-2.23708 0,-0.78304 -0.465144,-1.52884 -1.310028,-2.10029 -0.955933,-0.6453 -2.251712,-0.96949 -3.548334,-0.96581 z"
             style="fill:#999999" />
        </g>
      </g>
    </g>
  </g>
</svg>
