<?xml version="1.0" encoding="UTF-8" standalone="no"?>
<svg
   xmlns:dc="http://purl.org/dc/elements/1.1/"
   xmlns:cc="http://creativecommons.org/ns#"
   xmlns:rdf="http://www.w3.org/1999/02/22-rdf-syntax-ns#"
   xmlns:svg="http://www.w3.org/2000/svg"
   xmlns="http://www.w3.org/2000/svg"
   xmlns:sodipodi="http://sodipodi.sourceforge.net/DTD/sodipodi-0.dtd"
   xmlns:inkscape="http://www.inkscape.org/namespaces/inkscape"
   version="1.1"
   x="0px"
   y="0px"
   viewBox="0 0 307.33033 241.64951"
   enable-background="new 0 0 100 100"
   xml:space="preserve"
   id="svg3388"
   inkscape:version="0.91 r13725"
   sodipodi:docname="wallet.svg"
   width="307.33032"
   height="241.64951"><metadata
     id="metadata3400"><rdf:RDF><cc:Work
         rdf:about=""><dc:format>image/svg+xml</dc:format><dc:type
           rdf:resource="http://purl.org/dc/dcmitype/StillImage" /><dc:title></dc:title></cc:Work></rdf:RDF></metadata><defs
     id="defs3398" /><sodipodi:namedview
     pagecolor="#ffffff"
     bordercolor="#666666"
     borderopacity="1"
     objecttolerance="10"
     gridtolerance="10"
     guidetolerance="10"
     inkscape:pageopacity="0"
     inkscape:pageshadow="2"
     inkscape:window-width="1366"
     inkscape:window-height="704"
     id="namedview3396"
     showgrid="false"
     inkscape:zoom="0.37906999"
     inkscape:cx="152.34973"
     inkscape:cy="211.99503"
     inkscape:window-x="0"
     inkscape:window-y="27"
     inkscape:window-maximized="1"
     inkscape:current-layer="g4542"
     fit-margin-top="0"
     fit-margin-left="0"
     fit-margin-right="0"
     fit-margin-bottom="0" /><g
     id="g4542"
     transform="scale(1.4239253,1.4239253)"><rect
       y="2.7503717"
       x="17.585207"
       height="55.761261"
       width="175.85201"
       id="rect3488"
       style="fill:#ff7f2a;fill-opacity:1" /><rect
       y="14.530913"
       x="4.8847833"
       height="118.59085"
       width="205.16068"
       id="rect3484"
       style="fill:#aa4400;fill-opacity:1" /><path
       style="fill:#2b1100;fill-opacity:1"
       sodipodi:nodetypes="ssssssssssscsssscsssccsssccccccssccccsscssccsssscc"
       inkscape:connector-curvature="0"
       id="path3390"
       d="m 154.47265,53.577603 c 0,4.405471 4.45784,7.989096 9.93798,7.989096 5.48016,0 9.93799,-3.583625 9.93799,-7.989096 0,-4.405472 -4.45783,-7.989098 -9.93799,-7.989098 -5.48014,0 -9.93798,3.583626 -9.93798,7.989098 z m 13.9322,0 c 0,1.77031 -1.79205,3.210928 -3.99422,3.210928 -2.20215,0 -3.99421,-1.440618 -3.99421,-3.210928 0,-1.770312 1.79206,-3.21093 3.99421,-3.21093 2.20217,0 3.99422,1.440618 3.99422,3.21093 z m 35.54078,-41.486449 -5.57228,0 0,-7.3129862 C 198.37335,2.1430086 195.70757,0 192.42958,0 L 21.917653,0 c -3.277988,0 -5.943769,2.1430086 -5.943769,4.7781678 l 0,7.3129862 -4.086342,0 C 5.3315623,12.091154 0,16.377172 0,21.647492 L 0,127.51737 c 0,5.27031 5.3315623,9.55633 11.887542,9.55633 64.019363,0 128.038728,0 192.058088,0 6.55597,0 11.88754,-4.28602 11.88754,-9.55633 l 0,-105.869878 c 0,-5.272709 -5.33157,-9.556338 -11.88754,-9.556338 z M 21.917653,4.7781678 l 170.511927,0 0,7.3129862 -170.511927,0 z M 209.8894,64.476604 l -45.45499,0 c -7.47725,0 -13.5607,-4.890455 -13.5607,-10.901391 0,-6.010936 6.08345,-10.901392 13.5607,-10.901392 l 45.45499,0 z m 0,-26.578562 -45.45499,0 c -10.75229,0 -19.50447,7.033464 -19.50447,15.679561 0,8.646095 8.74923,15.679559 19.50447,15.679559 l 45.45499,0 0,58.262598 c 0,2.63516 -2.66579,4.77816 -5.94377,4.77816 -64.01936,0 -128.038725,0 -192.058088,0 -3.277991,0 -5.9437722,-2.143 -5.9437722,-4.77816 l 0,-105.872268 c 0,-2.63516 2.6657812,-4.778169 5.9437722,-4.778169 l 192.058088,0 c 3.27798,0 5.94377,2.143009 5.94377,4.778169 z" /><g
       id="g5135"
       transform="translate(405.73036,-25.9371)"><circle
         style="fill:#d38d5f;fill-opacity:1;stroke:#000000;stroke-width:4.81501341;stroke-miterlimit:4;stroke-dasharray:none;stroke-opacity:1"
         id="path3486"
         cx="-290.86606"
         cy="153.21935"
         r="40.016842" /><g
         id="g5127"><g
           style="fill:#2b1100"
           transform="matrix(0.73328604,0,0,0.73328604,-219.86198,-383.5636)"
           id="layer1"><g
             style="fill:#2b1100"
             transform="matrix(5.9268127,0,0,5.9268127,430.78908,157.1658)"
             id="g3369"><g
               style="fill:#2b1100"
               id="g3477"><g
                 style="fill:#2b1100"
                 id="g3471"
                 transform="translate(0.2364676,-8.6464309)"><path
                   inkscape:connector-curvature="0"
                   style="fill:#2b1100;fill-opacity:1"
                   id="path3357-6"
                   d="m -89.259742,100.47345 c -0.520514,0.11244 -1.017834,0.36284 -1.433361,0.75315 -0.0034,0.003 -0.0069,0.007 -0.01028,0.01 l -4.538346,4.54912 c -0.08548,0.0856 -0.128096,0.19778 -0.128096,0.30983 0,0.11205 0.04274,0.22411 0.127969,0.30971 l 4.538471,4.55226 c 0.0034,0.003 0.0069,0.007 0.01028,0.01 0.41543,0.3905 0.912762,0.64103 1.43336,0.75349 l 0,-11.24736 z" /><path
                   inkscape:connector-curvature="0"
                   id="path3357-3"
                   d="m -88.759894,100.31513 c -0.02842,9e-5 -0.05683,3.8e-4 -0.08526,7.6e-4 l 0,1.31418 c 0.875639,0.0472 1.727985,0.29104 2.375764,0.72832 0.644688,0.43605 0.999583,1.00515 0.999583,1.60265 0,0.64407 -0.423883,1.26621 -1.162975,1.707 l -0.573884,0.34201 0.573591,0.34167 c 0.739396,0.44098 1.163268,1.06311 1.163268,1.70708 0,0.5976 -0.354922,1.1665 -0.999457,1.60225 -0.648126,0.43723 -1.500433,0.68109 -2.37589,0.7283 l 0,1.42692 c 1.324612,0.0184 2.656362,-0.3056 3.6338,-0.96498 0.844686,-0.57107 1.309819,-1.31662 1.309819,-2.09979 0,-0.84395 -0.555532,-1.6593 -1.524533,-2.23721 l -0.751688,-0.44774 0.752107,-0.44825 c 0.968605,-0.57766 1.524114,-1.393 1.524114,-2.23708 0,-0.78304 -0.465144,-1.52884 -1.310028,-2.10029 -0.955933,-0.6453 -2.251712,-0.96949 -3.548334,-0.96581 z"
                   style="fill:#2b1100" /></g></g></g></g></g></g></g></svg>