<?xml version="1.0" encoding="UTF-8" standalone="no"?>
<svg
   xmlns:dc="http://purl.org/dc/elements/1.1/"
   xmlns:cc="http://creativecommons.org/ns#"
   xmlns:rdf="http://www.w3.org/1999/02/22-rdf-syntax-ns#"
   xmlns:svg="http://www.w3.org/2000/svg"
   xmlns="http://www.w3.org/2000/svg"
   xmlns:sodipodi="http://sodipodi.sourceforge.net/DTD/sodipodi-0.dtd"
   xmlns:inkscape="http://www.inkscape.org/namespaces/inkscape"
   version="1.1"
   x="0px"
   y="0px"
   viewBox="0 0 214.90685 211.57782"
   enable-background="new 0 0 100 100"
   xml:space="preserve"
   id="svg3388"
   inkscape:version="0.91 r13725"
   sodipodi:docname="wallet.svg"
   width="214.90685"
   height="211.57782"><metadata
     id="metadata3400"><rdf:RDF><cc:Work
         rdf:about=""><dc:format>image/svg+xml</dc:format><dc:type
           rdf:resource="http://purl.org/dc/dcmitype/StillImage" /><dc:title></dc:title></cc:Work></rdf:RDF></metadata><defs
     id="defs3398" /><sodipodi:namedview
     pagecolor="#ffffff"
     bordercolor="#666666"
     borderopacity="1"
     objecttolerance="10"
     gridtolerance="10"
     guidetolerance="10"
     inkscape:pageopacity="0"
     inkscape:pageshadow="2"
     inkscape:window-width="1366"
     inkscape:window-height="704"
     id="namedview3396"
     showgrid="false"
     inkscape:zoom="1.4538115"
     inkscape:cx="88.548584"
     inkscape:cy="153.34903"
     inkscape:window-x="0"
     inkscape:window-y="27"
     inkscape:window-maximized="1"
     inkscape:current-layer="svg3388"
     fit-margin-top="0"
     fit-margin-left="0"
     fit-margin-right="0"
     fit-margin-bottom="0" /><rect
     style="fill:#ff7f2a;fill-opacity:1"
     id="rect3488"
     width="175.09727"
     height="69.066147"
     x="17.509733"
     y="3.4066226" /><rect
     style="fill:#aa4400;fill-opacity:1"
     id="rect3484"
     width="204.28015"
     height="146.88716"
     x="4.8638186"
     y="17.998055" /><circle
     style="fill:#d38d5f;fill-opacity:1"
     id="path3486"
     cx="107.00388"
     cy="150.29376"
     r="58.365753" /><path
     d="m 153.80968,66.361458 c 0,5.456636 4.4387,9.895331 9.89532,9.895331 5.45664,0 9.89534,-4.438695 9.89534,-9.895331 0,-5.456637 -4.4387,-9.895332 -9.89534,-9.895332 -5.45662,0 -9.89532,4.438695 -9.89532,9.895332 z m 13.8724,0 c 0,2.192715 -1.78436,3.97707 -3.97708,3.97707 -2.1927,0 -3.97706,-1.784355 -3.97706,-3.97707 0,-2.192716 1.78436,-3.977072 3.97706,-3.977072 2.19272,0 3.97708,1.784356 3.97708,3.977072 z m 35.38824,-51.3853 -5.54836,0 0,-9.057898 C 197.52196,2.65434 194.86762,0 191.6037,0 L 21.823586,0 c -3.26392,0 -5.91826,2.65434 -5.91826,5.91826 l 0,9.057898 -4.068804,0 C 5.30868,14.976158 0,20.284838 0,26.81268 l 0,131.1309 c 0,6.52784 5.30868,11.83652 11.836522,11.83652 l 38.474612,0 c 7.717412,24.20866 30.405064,41.79772 57.140806,41.79772 26.73574,0 49.4234,-17.58906 57.1408,-41.79772 l 38.47758,0 c 6.52784,0 11.83652,-5.30868 11.83652,-11.83652 l 0,-131.1309 c 0,-6.530801 -5.30868,-11.836522 -11.83652,-11.836522 z M 21.823586,5.91826 l 169.780114,0 0,9.057898 -169.780114,0 z M 159.6007,165.60182 c -0.077,0.17458 -0.0976,0.36988 -0.145,0.55926 -6.37396,22.74684 -27.24768,39.49848 -52.00376,39.49848 -24.773838,0 -45.65938,-16.7753 -52.015592,-39.54582 -0.04438,-0.17162 -0.06214,-0.34622 -0.1302,-0.506 -1.201406,-4.47126 -1.90568,-9.14668 -1.90568,-13.99374 0,-2.2371 0.142039,-4.49788 0.417238,-6.72018 3.343818,-26.98135 26.401361,-47.328333 53.634234,-47.328333 6.97467,0 13.757,1.304977 20.16352,3.885343 20.5837,8.27964 33.885,27.96969 33.885,50.16613 0.003,4.84114 -0.69836,9.5136 -1.89976,13.98486 z m 49.38788,-85.74081 -45.2599,0 c -7.44516,0 -13.5025,-6.05734 -13.5025,-13.502512 0,-7.445172 6.05734,-13.502512 13.5025,-13.502512 l 45.2599,0 z m 0,-32.920326 -45.2599,0 c -10.70614,0 -19.42076,8.71168 -19.42076,19.420774 0,10.709092 8.71168,19.420772 19.42076,19.420772 l 45.2599,0 0,72.16431 c 0,3.26392 -2.65434,5.91826 -5.91826,5.91826 l -36.91516,0 c 0.82264,-3.95636 1.26652,-8.0518 1.26652,-12.24784 0,-24.62292 -14.75718,-46.47018 -37.59576,-55.65828 -7.10782,-2.86148 -14.63585,-4.311454 -22.37398,-4.311454 -30.215678,0 -55.79736,22.578164 -59.50515,52.518654 -0.30775,2.46198 -0.461626,4.97134 -0.461626,7.45108 0,4.19604 0.440912,8.29148 1.266508,12.24784 l -36.91515,0 c -3.263922,0 -5.918262,-2.65434 -5.918262,-5.91826 l 0,-131.13386 c 0,-3.263921 2.65434,-5.918261 5.918262,-5.918261 l 191.233798,0 c 3.26392,0 5.91826,2.65434 5.91826,5.918261 z"
     id="path3390"
     inkscape:connector-curvature="0"
     sodipodi:nodetypes="ssssssssssscsssscsssscscsssscccccccsccscsccccssscccssscsscscscscssssssc"
     style="fill:#2b1100;fill-opacity:1" /><g
     id="layer1"
     transform="matrix(1.0695195,0,0,1.0695195,210.56544,-632.62009)"
     style="fill:#2b1100"><g
       id="g3369"
       transform="matrix(5.9268127,0,0,5.9268127,430.78908,157.1658)"
       style="fill:#2b1100"><g
         id="g3477"
         style="fill:#2b1100"><g
           transform="translate(0.2364676,-8.6464309)"
           id="g3471"
           style="fill:#2b1100"><path
             d="m -89.259742,100.47345 c -0.520514,0.11244 -1.017834,0.36284 -1.433361,0.75315 -0.0034,0.003 -0.0069,0.007 -0.01028,0.01 l -4.538346,4.54912 c -0.08548,0.0856 -0.128096,0.19778 -0.128096,0.30983 0,0.11205 0.04274,0.22411 0.127969,0.30971 l 4.538471,4.55226 c 0.0034,0.003 0.0069,0.007 0.01028,0.01 0.41543,0.3905 0.912762,0.64103 1.43336,0.75349 l 0,-11.24736 z"
             id="path3357-6"
             style="fill:#2b1100;fill-opacity:1"
             inkscape:connector-curvature="0" /><path
             style="fill:#2b1100"
             d="m -88.759894,100.31513 c -0.02842,9e-5 -0.05683,3.8e-4 -0.08526,7.6e-4 l 0,1.31418 c 0.875639,0.0472 1.727985,0.29104 2.375764,0.72832 0.644688,0.43605 0.999583,1.00515 0.999583,1.60265 0,0.64407 -0.423883,1.26621 -1.162975,1.707 l -0.573884,0.34201 0.573591,0.34167 c 0.739396,0.44098 1.163268,1.06311 1.163268,1.70708 0,0.5976 -0.354922,1.1665 -0.999457,1.60225 -0.648126,0.43723 -1.500433,0.68109 -2.37589,0.7283 l 0,1.42692 c 1.324612,0.0184 2.656362,-0.3056 3.6338,-0.96498 0.844686,-0.57107 1.309819,-1.31662 1.309819,-2.09979 0,-0.84395 -0.555532,-1.6593 -1.524533,-2.23721 l -0.751688,-0.44774 0.752107,-0.44825 c 0.968605,-0.57766 1.524114,-1.393 1.524114,-2.23708 0,-0.78304 -0.465144,-1.52884 -1.310028,-2.10029 -0.955933,-0.6453 -2.251712,-0.96949 -3.548334,-0.96581 z"
             id="path3357-3"
             inkscape:connector-curvature="0" /></g></g></g></g></svg>